<svg width="48" height="48" viewBox="0 0 48 48" fill="none" xmlns="http://www.w3.org/2000/svg">
<rect x="10.7972" y="9.51025" width="27.3174" height="31.1789" fill="black" stroke="black"/>
<mask id="path-2-inside-1_4038_7" fill="white">
<path fill-rule="evenodd" clip-rule="evenodd" d="M10.2552 0C4.59139 0 0 4.59139 0 10.2552V37.7448C0 43.4086 4.59139 48 10.2552 48H37.7448C43.4086 48 48 43.4086 48 37.7448V10.2552C48 4.59139 43.4086 0 37.7448 0H10.2552ZM32.1203 20.761C32.2063 20.8102 32.2776 20.881 32.3267 20.966C32.3758 21.051 32.4011 21.1473 32.3999 21.245C32.3987 21.3428 32.3711 21.4384 32.32 21.5223L23.4949 36.942C23.4272 37.0468 23.3257 37.1263 23.2066 37.168C23.0876 37.2096 22.9577 37.2111 22.8377 37.172C22.7177 37.1329 22.6145 37.0556 22.5445 36.9523C22.4745 36.849 22.4416 36.7258 22.4513 36.6021L23.4316 27.3163H16.1631C16.063 27.3162 15.9646 27.29 15.8782 27.2403C15.7918 27.1905 15.7204 27.1191 15.6715 27.0333C15.6227 26.9475 15.598 26.8505 15.6001 26.7522C15.6021 26.654 15.6309 26.5581 15.6834 26.4743L24.6567 11.0529C24.7261 10.9483 24.8293 10.8697 24.9498 10.8297C25.0703 10.7896 25.201 10.7905 25.3209 10.8322C25.4408 10.8739 25.5428 10.954 25.6107 11.0595C25.6786 11.165 25.7083 11.2899 25.695 11.414L24.4579 20.6859H31.8367C31.9363 20.6859 32.0342 20.7118 32.1203 20.761Z"/>
</mask>
<path fill-rule="evenodd" clip-rule="evenodd" d="M10.2552 0C4.59139 0 0 4.59139 0 10.2552V37.7448C0 43.4086 4.59139 48 10.2552 48H37.7448C43.4086 48 48 43.4086 48 37.7448V10.2552C48 4.59139 43.4086 0 37.7448 0H10.2552ZM32.1203 20.761C32.2063 20.8102 32.2776 20.881 32.3267 20.966C32.3758 21.051 32.4011 21.1473 32.3999 21.245C32.3987 21.3428 32.3711 21.4384 32.32 21.5223L23.4949 36.942C23.4272 37.0468 23.3257 37.1263 23.2066 37.168C23.0876 37.2096 22.9577 37.2111 22.8377 37.172C22.7177 37.1329 22.6145 37.0556 22.5445 36.9523C22.4745 36.849 22.4416 36.7258 22.4513 36.6021L23.4316 27.3163H16.1631C16.063 27.3162 15.9646 27.29 15.8782 27.2403C15.7918 27.1905 15.7204 27.1191 15.6715 27.0333C15.6227 26.9475 15.598 26.8505 15.6001 26.7522C15.6021 26.654 15.6309 26.5581 15.6834 26.4743L24.6567 11.0529C24.7261 10.9483 24.8293 10.8697 24.9498 10.8297C25.0703 10.7896 25.201 10.7905 25.3209 10.8322C25.4408 10.8739 25.5428 10.954 25.6107 11.0595C25.6786 11.165 25.7083 11.2899 25.695 11.414L24.4579 20.6859H31.8367C31.9363 20.6859 32.0342 20.7118 32.1203 20.761Z" fill="white"/>
<path d="M32.3267 20.966L31.4608 21.4662L31.4608 21.4663L32.3267 20.966ZM32.1203 20.761L31.624 21.6292L31.624 21.6292L32.1203 20.761ZM32.3999 21.245L33.3998 21.2572L33.3998 21.2572L32.3999 21.245ZM32.32 21.5223L31.4664 21.0013L31.459 21.0133L31.452 21.0255L32.32 21.5223ZM23.4949 36.942L24.3348 37.4848L24.3494 37.4621L24.3628 37.4388L23.4949 36.942ZM22.8377 37.172L23.1475 36.2211L23.1474 36.2211L22.8377 37.172ZM22.5445 36.9523L23.3721 36.3911L23.3721 36.3911L22.5445 36.9523ZM22.4513 36.6021L21.4568 36.4971L21.4554 36.5108L21.4543 36.5244L22.4513 36.6021ZM23.4316 27.3163L24.4261 27.4212L24.5428 26.3163H23.4316V27.3163ZM16.1631 27.3163L16.163 28.3163H16.1631V27.3163ZM15.8782 27.2403L16.377 26.3736L16.377 26.3736L15.8782 27.2403ZM15.6715 27.0333L16.5404 26.5382L16.5404 26.5382L15.6715 27.0333ZM15.6001 26.7522L14.6003 26.7311L14.6003 26.7311L15.6001 26.7522ZM15.6834 26.4743L16.5307 27.0054L16.5394 26.9915L16.5477 26.9773L15.6834 26.4743ZM24.6567 11.0529L23.8234 10.5001L23.8072 10.5246L23.7924 10.55L24.6567 11.0529ZM24.9498 10.8297L25.2651 11.7787L25.2652 11.7787L24.9498 10.8297ZM25.3209 10.8322L25.6494 9.88773L25.6493 9.88772L25.3209 10.8322ZM25.6107 11.0595L26.4518 10.5186L26.4518 10.5186L25.6107 11.0595ZM25.695 11.414L26.6862 11.5462L26.6879 11.5333L26.6893 11.5204L25.695 11.414ZM24.4579 20.6859L23.4667 20.5536L23.3156 21.6859H24.4579V20.6859ZM31.8367 20.6859L31.8367 19.6859H31.8367V20.6859ZM1 10.2552C1 5.14368 5.14368 1 10.2552 1V-1C4.03911 -1 -1 4.03911 -1 10.2552H1ZM1 37.7448V10.2552H-1V37.7448H1ZM10.2552 47C5.14368 47 1 42.8563 1 37.7448H-1C-1 43.9609 4.03911 49 10.2552 49V47ZM37.7448 47H10.2552V49H37.7448V47ZM47 37.7448C47 42.8563 42.8563 47 37.7448 47V49C43.9609 49 49 43.9609 49 37.7448H47ZM47 10.2552V37.7448H49V10.2552H47ZM37.7448 1C42.8563 1 47 5.14368 47 10.2552H49C49 4.03911 43.9609 -1 37.7448 -1V1ZM10.2552 1H37.7448V-1H10.2552V1ZM33.1926 20.4658C33.0541 20.226 32.8547 20.029 32.6165 19.8929L31.624 21.6292C31.558 21.5915 31.5011 21.5359 31.4608 21.4662L33.1926 20.4658ZM33.3998 21.2572C33.4032 20.9788 33.3312 20.7056 33.1926 20.4658L31.4608 21.4663C31.4205 21.3964 31.399 21.3158 31.4 21.2329L33.3998 21.2572ZM33.1735 22.0432C33.3178 21.8068 33.3964 21.5356 33.3998 21.2572L31.4 21.2329C31.401 21.15 31.4244 21.07 31.4664 21.0013L33.1735 22.0432ZM24.3628 37.4388L33.1879 22.019L31.452 21.0255L22.627 36.4453L24.3628 37.4388ZM23.5369 38.1119C23.8631 37.9978 24.145 37.7785 24.3348 37.4848L22.655 36.3993C22.7094 36.3151 22.7884 36.2549 22.8764 36.2241L23.5369 38.1119ZM22.5279 38.1228C22.8562 38.2297 23.211 38.2259 23.5369 38.1119L22.8764 36.2241C22.9642 36.1934 23.0591 36.1924 23.1475 36.2211L22.5279 38.1228ZM21.7168 37.5135C21.913 37.8028 22.1995 38.0158 22.528 38.1228L23.1474 36.2211C23.2359 36.25 23.316 36.3083 23.3721 36.3911L21.7168 37.5135ZM21.4543 36.5244C21.427 36.8755 21.5204 37.2238 21.7168 37.5135L23.3721 36.3911C23.4285 36.4742 23.4563 36.576 23.4483 36.6797L21.4543 36.5244ZM22.4372 27.2113L21.4568 36.4971L23.4458 36.7071L24.4261 27.4212L22.4372 27.2113ZM16.1631 28.3163H23.4316V26.3163H16.1631V28.3163ZM15.3793 28.107C15.6182 28.2445 15.8887 28.3162 16.163 28.3163L16.1633 26.3163C16.2372 26.3163 16.3109 26.3356 16.377 26.3736L15.3793 28.107ZM14.8027 27.5284C14.9406 27.7704 15.1403 27.9694 15.3793 28.107L16.377 26.3736C16.4432 26.4117 16.5003 26.4678 16.5404 26.5382L14.8027 27.5284ZM14.6003 26.7311C14.5944 27.011 14.6647 27.2863 14.8027 27.5284L16.5404 26.5382C16.5806 26.6087 16.6016 26.69 16.5998 26.7734L14.6003 26.7311ZM14.8361 25.9433C14.6882 26.1792 14.6062 26.4512 14.6003 26.7311L16.5998 26.7734C16.5981 26.8568 16.5736 26.9369 16.5307 27.0054L14.8361 25.9433ZM23.7924 10.55L14.8191 25.9714L16.5477 26.9773L25.5211 11.5558L23.7924 10.55ZM24.6345 9.88069C24.3046 9.9903 24.0179 10.207 23.8234 10.5001L25.4901 11.6057C25.4344 11.6897 25.3541 11.7491 25.2651 11.7787L24.6345 9.88069ZM25.6493 9.88772C25.3212 9.7736 24.9642 9.77115 24.6345 9.88069L25.2652 11.7787C25.1764 11.8081 25.0808 11.8075 24.9924 11.7767L25.6493 9.88772ZM26.4518 10.5186C26.2615 10.2227 25.9778 10.0019 25.6494 9.88773L24.9924 11.7767C24.9037 11.7459 24.8242 11.6853 24.7696 11.6004L26.4518 10.5186ZM26.6893 11.5204C26.727 11.168 26.6424 10.815 26.4518 10.5186L24.7696 11.6004C24.7148 11.5151 24.6895 11.4118 24.7007 11.3076L26.6893 11.5204ZM25.4491 20.8181L26.6862 11.5462L24.7038 11.2817L23.4667 20.5536L25.4491 20.8181ZM31.8367 19.6859H24.4579V21.6859H31.8367V19.6859ZM32.6166 19.8929C32.3786 19.7568 32.1095 19.6859 31.8367 19.6859L31.8367 21.6859C31.7631 21.6859 31.6898 21.6668 31.624 21.6292L32.6166 19.8929Z" fill="black" mask="url(#path-2-inside-1_4038_7)"/>
</svg>
