<svg width="24" height="24" viewBox="0 0 24 24" fill="none" xmlns="http://www.w3.org/2000/svg">
<path d="M9.01009 11.75C9.4243 11.75 9.76009 11.4142 9.76009 11C9.76009 10.5858 9.4243 10.25 9.01009 10.25V11.75ZM9.00009 10.25C8.58587 10.25 8.25009 10.5858 8.25009 11C8.25009 11.4142 8.58587 11.75 9.00009 11.75V10.25ZM15.01 11.75C15.4243 11.75 15.76 11.4142 15.76 11C15.76 10.5858 15.4243 10.25 15.01 10.25V11.75ZM15 10.25C14.5858 10.25 14.25 10.5858 14.25 11C14.25 11.4142 14.5858 11.75 15 11.75V10.25ZM6.77818 8.75H17.222V7.25H6.77818V8.75ZM19.4653 10.8274L20.0038 17.8274L21.4994 17.7124L20.9609 10.7124L19.4653 10.8274ZM17.7604 20.25H6.23972V21.75H17.7604V20.25ZM3.99635 17.8274L4.53481 10.8274L3.03923 10.7124L2.50077 17.7124L3.99635 17.8274ZM6.23972 20.25C4.92907 20.25 3.89583 19.1342 3.99635 17.8274L2.50077 17.7124C2.33323 19.8904 4.05531 21.75 6.23972 21.75V20.25ZM20.0038 17.8274C20.1043 19.1342 19.0711 20.25 17.7604 20.25V21.75C19.9448 21.75 21.6669 19.8904 21.4994 17.7124L20.0038 17.8274ZM17.222 8.75C18.3977 8.75 19.3752 9.65519 19.4653 10.8274L20.9609 10.7124C20.8106 8.75865 19.1815 7.25 17.222 7.25V8.75ZM6.77818 7.25C4.81867 7.25 3.18951 8.75865 3.03923 10.7124L4.53481 10.8274C4.62498 9.65519 5.60248 8.75 6.77818 8.75V7.25ZM14.25 6V8H15.75V6H14.25ZM9.75009 8V6H8.25009V8H9.75009ZM12 3.75C13.2427 3.75 14.25 4.75736 14.25 6H15.75C15.75 3.92893 14.0711 2.25 12 2.25V3.75ZM12 2.25C9.92902 2.25 8.25009 3.92893 8.25009 6H9.75009C9.75009 4.75736 10.7574 3.75 12 3.75V2.25ZM9.01009 10.25H9.00009V11.75H9.01009V10.25ZM15.01 10.25H15V11.75H15.01V10.25Z" fill="#252432"/>
</svg>
