<svg width="24" height="24" viewBox="0 0 24 24" fill="none" xmlns="http://www.w3.org/2000/svg">
<rect width="24" height="24" fill="#F5F8FF"/>
<path d="M17.2001 17.1999V13.4641C17.2001 11.6281 16.8049 10.2256 14.6629 10.2256C13.6301 10.2256 12.9416 10.7866 12.6611 11.3221H12.6356V10.3914H10.6084V17.1999H12.7249V13.8211C12.7249 12.9286 12.8906 12.0744 13.9871 12.0744C15.0709 12.0744 15.0836 13.0816 15.0836 13.8721V17.1871H17.2001V17.1999Z" fill="#151515"/>
<path d="M7.16577 10.3916H9.28227V17.2001H7.16577V10.3916Z" fill="#151515"/>
<path d="M8.224 7C7.54825 7 7 7.54825 7 8.224C7 8.89975 7.54825 9.46075 8.224 9.46075C8.89975 9.46075 9.448 8.89975 9.448 8.224C9.448 7.54825 8.89975 7 8.224 7Z" fill="#151515"/>
</svg>
