<svg width="170" height="38" viewBox="0 0 170 38" fill="none" xmlns="http://www.w3.org/2000/svg">
<path d="M166.488 29.3223V7.91028H170V29.3223H166.488Z" fill="black"/>
<path d="M145.186 21.4969V7.91028H148.698V21.5585C148.698 24.8858 150.577 26.4571 153.535 26.4571C156.523 26.4571 158.403 24.8858 158.403 21.5585V7.91028H161.915V21.4969C161.915 26.95 157.971 29.5379 153.504 29.5379C149.006 29.5379 145.186 26.95 145.186 21.4969Z" fill="black"/>
<path d="M136.905 20.3879V29.3224H133.393V12.3469H136.905V14.8115C137.891 13.1171 139.585 12.0696 141.988 12.0696V15.705H141.095C138.507 15.705 136.905 16.7833 136.905 20.3879Z" fill="black"/>
<path d="M121.526 15.0272C119.153 15.0272 117.243 16.6293 116.873 19.3096H126.27C126.209 16.6909 124.144 15.0272 121.526 15.0272ZM129.474 24.2698C128.519 27.2274 125.839 29.5997 121.68 29.5997C116.812 29.5997 113.207 26.1491 113.207 20.8192C113.207 15.4893 116.658 12.0696 121.68 12.0696C126.517 12.0696 129.936 15.4277 129.936 20.4187C129.936 21.0041 129.906 21.5586 129.813 22.144H116.843C117.089 24.9476 119.092 26.6421 121.68 26.6421C123.836 26.6421 125.038 25.5946 125.685 24.2698H129.474Z" fill="black"/>
<path d="M103.469 24.6086V15.212H101.467V12.3468H103.469V8.12598H107.012V12.3468H111.141V15.212H107.012V24.6086C107.012 25.8717 107.505 26.3955 108.984 26.3955H111.141V29.3223H108.368C105.349 29.3223 103.469 28.0591 103.469 24.6086Z" fill="black"/>
<path d="M99.1199 24.5779C99.1199 27.4431 96.6244 29.5997 92.6193 29.5997C88.5526 29.5997 85.6874 27.1966 85.5333 24.1157H89.1687C89.292 25.5021 90.6167 26.6421 92.5577 26.6421C94.5911 26.6421 95.6694 25.7794 95.6694 24.6087C95.6694 21.2814 85.8106 23.1915 85.8106 16.9681C85.8106 14.257 88.3369 12.0696 92.342 12.0696C96.1931 12.0696 98.7194 14.1338 98.9043 17.5227H95.3921C95.2688 16.0439 94.1289 15.0272 92.2188 15.0272C90.3395 15.0272 89.3536 15.7974 89.3536 16.9373C89.3536 20.3571 98.9351 18.447 99.1199 24.5779Z" fill="black"/>
<path d="M64.4069 20.7576C64.4069 15.5201 67.9499 12.0696 72.4171 12.0696C75.2823 12.0696 77.2541 13.4252 78.3015 14.8115V12.3469H81.8445V29.3224H78.3015V26.7961C77.2232 28.2441 75.1899 29.5997 72.3555 29.5997C67.9499 29.5997 64.4069 25.9951 64.4069 20.7576ZM78.3015 20.8192C78.3015 17.1838 75.806 15.1196 73.1565 15.1196C70.5378 15.1196 68.0115 17.0914 68.0115 20.7576C68.0115 24.4238 70.5378 26.5496 73.1565 26.5496C75.806 26.5496 78.3015 24.4854 78.3015 20.8192Z" fill="black"/>
<path d="M49.722 29.3223V7.91028H62.3228V10.7755H53.2342V17.0912H60.3202V19.9564H53.2342V29.3223H49.722Z" fill="black"/>
<path fill-rule="evenodd" clip-rule="evenodd" d="M10.2552 0C4.59139 0 0 4.59139 0 10.2552V27.0363C0 32.7001 4.59139 37.2915 10.2552 37.2915H27.0363C32.7001 37.2915 37.2915 32.7001 37.2915 27.0363V10.2552C37.2915 4.59139 32.7001 0 27.0363 0H10.2552ZM24.9544 16.1291C25.0213 16.1674 25.0767 16.2223 25.1148 16.2884C25.153 16.3544 25.1726 16.4292 25.1717 16.5052C25.1708 16.5811 25.1493 16.6554 25.1096 16.7205L18.2533 28.7003C18.2007 28.7816 18.1219 28.8434 18.0294 28.8758C17.9369 28.9082 17.836 28.9093 17.7428 28.8789C17.6495 28.8485 17.5693 28.7884 17.5149 28.7082C17.4605 28.628 17.4351 28.5322 17.4425 28.4361L18.2042 21.2219H12.5572C12.4794 21.2219 12.403 21.2015 12.3358 21.1629C12.2687 21.1243 12.2133 21.0688 12.1753 21.0021C12.1373 20.9355 12.1182 20.8601 12.1198 20.7837C12.1214 20.7074 12.1438 20.6329 12.1845 20.5678L19.156 8.58683C19.2099 8.50559 19.2901 8.44449 19.3837 8.41339C19.4773 8.38229 19.5788 8.383 19.6719 8.41539C19.7651 8.44778 19.8444 8.50998 19.8971 8.59196C19.9498 8.67395 19.9729 8.77095 19.9626 8.86736L19.0015 16.0707H24.7341C24.8115 16.0707 24.8875 16.0909 24.9544 16.1291Z" fill="black"/>
</svg>
